# xmcd
#
# Track frame offsets:
#	150
#	17877
#	34227
#	57117
#	72477
#	91195
#	113317
#	130495
#	146785
#	160645
#	183567
#	209022
#	228707
#
# Disc length: 3243 seconds
#
# Revision: 0
# Processed by: cddbd v1.4PL0 Copyright (c) Steve Scherf et al.
# Submitted via: EasyCDDAExtractor 4.6.9.1
#
DISCID=bb0ca90d
DTITLE=Marty Rotella - I Wait on Tepeyac
DYEAR=1988
DGENRE=Christian Music
TTITLE0=I'm Your Mother
TTITLE1=Tilma
TTITLE2=Perfect and Perpetual
TTITLE3=1531
TTITLE4=Flores MilaGrosas
TTITLE5=I Wait On Tepeyac
TTITLE6=Juan Diego
TTITLE7=Come to Me
TTITLE8=I'll Always Love You
TTITLE9=Guadalupe
TTITLE10=Te Espero en Tepeyac
TTITLE11=You Are The Miracle
TTITLE12=Don't Be Afraid
EXTD=
EXTT0=
EXTT1=
EXTT2=
EXTT3=
EXTT4=
EXTT5=
EXTT6=
EXTT7=
EXTT8=
EXTT9=
EXTT10=
EXTT11=
EXTT12=
PLAYORDER=
